<svg version="1.2" xmlns="http://www.w3.org/2000/svg" viewBox="0 0 1000 1000" width="512" height="512"><style></style><path  d="m827.7 203.5h-757.5c-8.8 0-15.8-7.1-15.8-15.8 0-8.8 7-15.9 15.8-15.9h757.5c8.8 0 15.9 7.1 15.9 15.9 0 8.7-7.1 15.8-15.9 15.8z"/><path  d="m566.5 142.6h-118.6c-8.7 0-15.8-7.1-15.8-15.8 0-8.8 7.1-15.9 15.8-15.9h118.6c8.7 0 15.8 7.1 15.8 15.9 0 8.7-7.1 15.8-15.8 15.8z"/><path  d="m166.6 126.8c0-11.4-9.2-20.5-20.5-20.5-11.3 0-20.5 9.1-20.5 20.5 0 11.3 9.2 20.5 20.5 20.5 11.3 0 20.5-9.2 20.5-20.5z"/><path  d="m238 126.8c0-11.4-9.2-20.5-20.5-20.5-11.3 0-20.5 9.1-20.5 20.5 0 11.3 9.2 20.5 20.5 20.5 11.3 0 20.5-9.2 20.5-20.5z"/><path  d="m309.5 126.8c0-11.4-9.2-20.5-20.5-20.5-11.3 0-20.5 9.1-20.5 20.5 0 11.3 9.2 20.5 20.5 20.5 11.3 0 20.5-9.2 20.5-20.5z"/><path  d="m878.8 793.8l-26.6-1.3c-8.8-0.4-15.5-7.8-15.1-16.6 0.4-8.7 7.7-15.3 16.6-15l25.9 1.2c18.6 0 34.4-15.7 34.4-35.1v-610.2c0-19.4-15.8-35.1-35.2-35.1h-757.6c-19.4 0-35.2 15.7-35.2 35.1v610.2c0 19.4 15.8 35.1 35.2 35.1h25.9c8.7 0 15.8 7.1 15.8 15.9 0 8.7-7.1 15.8-15.8 15.8h-25.9c-36.9 0-66.8-30-66.8-66.8v-610.2c0-36.8 29.9-66.8 66.8-66.8h757.6c36.9 0 66.8 30 66.8 66.8v610.2c0 36.8-29.9 66.8-66.8 66.8z"/><path  d="m500 702.6c-56.8 0-103-46.2-103-103 0-8.7 7.1-15.8 15.8-15.8 8.8 0 15.9 7.1 15.9 15.8 0 39.4 32 71.4 71.3 71.4 39.3 0 71.3-32 71.3-71.4 0-39.3-32-71.3-71.3-71.3-8.8 0-15.8-7.1-15.8-15.9 0-8.7 7-15.8 15.8-15.8 56.8 0 103 46.2 103 103 0 56.8-46.2 103-103 103z"/><path fill-rule="evenodd" d="m544.3 950h-88.6c-25.2 0-45.8-20.5-45.8-45.8v-51.4c-8.5-3-17-6.5-25.2-10.5l-36.4 36.4c-8.7 8.6-20.2 13.4-32.4 13.4-12.2 0-23.7-4.8-32.3-13.4l-62.7-62.7c-8.6-8.6-13.4-20.1-13.4-32.3 0-12.2 4.8-23.7 13.4-32.4l36.4-36.3c-3.9-8.3-7.4-16.7-10.5-25.3h-51.4c-25.3 0-45.8-20.5-45.8-45.8v-88.6c0-25.2 20.5-45.7 45.8-45.7h51.4c3-8.6 6.6-17.1 10.5-25.3l-36.4-36.4c-8.6-8.6-13.4-20.1-13.4-32.4 0-12.2 4.8-23.7 13.4-32.3l62.7-62.7c17.8-17.8 46.8-17.8 64.7 0l36.4 36.4c8.2-3.9 16.7-7.4 25.2-10.5v-51.4c0-25.2 20.6-45.8 45.8-45.8h88.6c25.2 0 45.8 20.6 45.8 45.8v51.4c8.5 3.1 17 6.6 25.2 10.5l36.4-36.4c17.9-17.8 46.9-17.8 64.7 0l62.7 62.7c8.6 8.6 13.4 20.1 13.4 32.3 0 12.3-4.8 23.8-13.4 32.4l-36.4 36.4c3.9 8.2 7.5 16.7 10.5 25.3h51.4c25.3 0 45.8 20.5 45.8 45.7v88.6c0 25.3-20.5 45.8-45.8 45.8h-51.4c-3.1 8.6-6.6 17-10.5 25.3l36.4 36.3c8.6 8.7 13.4 20.2 13.4 32.4 0 12.2-4.8 23.7-13.4 32.3l-62.7 62.7c-8.6 8.6-20.1 13.4-32.3 13.4-12.3 0-23.7-4.8-32.4-13.4l-36.4-36.4c-8.2 4-16.7 7.5-25.2 10.5v51.4c0 25.3-20.6 45.8-45.8 45.8zm-162.7-142.8c2.5 0 5 0.6 7.4 1.8 13.3 7.1 27.2 12.9 41.4 17.2 6.7 2.1 11.2 8.2 11.2 15.2v62.8c0 7.8 6.3 14.1 14.1 14.1h88.6c7.8 0 14.1-6.3 14.1-14.1v-62.8c0-7 4.5-13.1 11.2-15.2 14.2-4.3 28.2-10.1 41.4-17.2 6.2-3.2 13.7-2.1 18.6 2.8l44.5 44.5c5.3 5.3 14.6 5.3 19.9 0l62.7-62.7c2.6-2.6 4.1-6.2 4.1-9.9 0-3.8-1.5-7.3-4.1-10l-44.5-44.4c-4.9-5-6-12.5-2.8-18.7 7.1-13.2 12.9-27.2 17.2-41.4 2.1-6.7 8.2-11.2 15.2-11.2h62.8c7.8 0 14.1-6.3 14.1-14.1v-88.6c0-7.7-6.3-14.1-14.1-14.1h-62.8c-7 0-13.1-4.5-15.2-11.2-4.3-14.2-10.1-28.1-17.2-41.4-3.2-6.1-2.1-13.7 2.8-18.6l44.5-44.5c2.6-2.7 4.1-6.2 4.1-10 0-3.7-1.5-7.2-4.1-9.9l-62.7-62.7c-5.5-5.5-14.4-5.5-19.9 0l-44.5 44.5c-4.9 4.9-12.4 6.1-18.6 2.8-13.3-7.1-27.2-12.9-41.4-17.2-6.7-2-11.2-8.2-11.2-15.1v-62.9c0-7.8-6.3-14.1-14.1-14.1h-88.6c-7.8 0-14.1 6.3-14.1 14.1v62.9c0 6.9-4.5 13.1-11.2 15.1-14.2 4.3-28.1 10.1-41.4 17.2-6.2 3.3-13.7 2.1-18.6-2.8l-44.5-44.5c-5.5-5.5-14.4-5.5-19.9 0l-62.7 62.7c-2.6 2.7-4.1 6.2-4.1 9.9 0 3.8 1.5 7.3 4.1 10l44.5 44.5c4.9 4.9 6 12.5 2.8 18.6-7.1 13.3-12.9 27.2-17.2 41.4-2.1 6.7-8.2 11.2-15.2 11.2h-62.8c-7.8 0-14.1 6.4-14.1 14.1v88.6c0 7.8 6.3 14.1 14.1 14.1h62.8c7 0 13.1 4.5 15.2 11.2 4.3 14.2 10.1 28.2 17.2 41.4 3.2 6.2 2.1 13.7-2.8 18.7l-44.5 44.4c-2.6 2.7-4.1 6.2-4.1 10 0 3.7 1.5 7.3 4.1 9.9l62.7 62.7c5.3 5.3 14.6 5.3 19.9 0l44.5-44.5c3-3 7.1-4.6 11.2-4.6z"/><path  d="m692.6 615.5c-8.8 0-15.8-7.1-15.8-15.9 0-13-1.5-25.9-4.2-38.5-1.9-8.5 3.4-17 12-18.9 8.5-1.9 17 3.5 18.9 12 3.3 14.8 4.9 30.1 4.9 45.4 0 8.8-7 15.9-15.8 15.9z"/><path  d="m659.3 507.2c-5 0-10-2.4-13.1-6.9-12.6-18.5-28.4-34.3-46.9-46.9-7.2-4.9-9.1-14.8-4.2-22 5-7.3 14.8-9.1 22.1-4.2 21.8 14.8 40.4 33.4 55.2 55.3 4.9 7.2 3.1 17-4.2 22-2.7 1.8-5.8 2.7-8.9 2.7z"/><path  d="m542 427.4q-1.7 0.1-3.5-0.3c-12.6-2.8-25.5-4.2-38.5-4.2-8.8 0-15.8-7.1-15.8-15.9 0-8.7 7-15.8 15.8-15.8 15.3 0 30.6 1.6 45.4 4.9 8.5 1.9 13.9 10.4 12 18.9-1.6 7.4-8.2 12.4-15.4 12.4z"/><path  d="m500 808.1c-114.9 0-208.4-93.6-208.4-208.5 0-114.9 93.5-208.4 208.4-208.4 8.7 0 15.8 7.1 15.8 15.8 0 8.8-7.1 15.9-15.8 15.9-97.5 0-176.8 79.3-176.8 176.7 0 97.5 79.3 176.8 176.8 176.8 97.5 0 176.8-79.3 176.8-176.8 0-8.7 7-15.8 15.8-15.8 8.8 0 15.8 7.1 15.8 15.8 0 114.9-93.5 208.5-208.4 208.5z"/></svg>